<svg xmlns="http://www.w3.org/2000/svg" viewBox="0 0 512 512" width="512" height="512">
  <defs>
    <linearGradient id="dish-d" x1="0" y1="0" x2="0" y2="1">
      <stop offset="0%" stop-color="#312e81"/>
      <stop offset="100%" stop-color="#1e1b4b"/>
    </linearGradient>
    <linearGradient id="flame-d" x1="0" y1="1" x2="0" y2="0">
      <stop offset="0%" stop-color="#f97316"/>
      <stop offset="50%" stop-color="#ef4444"/>
      <stop offset="100%" stop-color="#dc2626"/>
    </linearGradient>
    <linearGradient id="inner-d" x1="0" y1="1" x2="0" y2="0">
      <stop offset="0%" stop-color="#fbbf24"/>
      <stop offset="100%" stop-color="#f97316"/>
    </linearGradient>
  </defs>

  <ellipse cx="256" cy="300" rx="200" ry="110" fill="url(#dish-d)" stroke="#6366f1" stroke-width="6"/>
  <ellipse cx="256" cy="300" rx="170" ry="90" fill="#1e1b4b" stroke="#4f46e5" stroke-width="3"/>

  <path d="M256 160 C230 210, 200 240, 210 290 C215 320, 240 340, 256 340 C272 340, 297 320, 302 290 C312 240, 282 210, 256 160Z" fill="url(#flame-d)"/>
  <path d="M256 220 C244 250, 230 265, 236 295 C240 315, 250 325, 256 325 C262 325, 272 315, 276 295 C282 265, 268 250, 256 220Z" fill="url(#inner-d)"/>

  <ellipse cx="256" cy="208" rx="190" ry="40" fill="none" stroke="#6366f1" stroke-width="5" opacity="0.6"/>

  <circle cx="190" cy="310" r="12" fill="#818cf8" opacity="0.5"/>
  <circle cx="320" cy="315" r="10" fill="#818cf8" opacity="0.4"/>
  <circle cx="260" cy="350" r="8" fill="#818cf8" opacity="0.3"/>
</svg>
